<?xml version="1.0" encoding="UTF-8" standalone="no"?>
<!DOCTYPE svg PUBLIC "-//W3C//DTD SVG 1.1//EN" "http://www.w3.org/Graphics/SVG/1.1/DTD/svg11.dtd">
<svg width="100%" height="100%" viewBox="0 0 60 60" version="1.1" xmlns="http://www.w3.org/2000/svg" xmlns:xlink="http://www.w3.org/1999/xlink" xml:space="preserve" xmlns:serif="http://www.serif.com/" style="fill-rule:evenodd;clip-rule:evenodd;stroke-linejoin:round;stroke-miterlimit:2;">
    <g transform="matrix(1,0,0,1,-62,-62)">
        <g id="clear-night" transform="matrix(1,0,0,1,62,62)">
            <rect x="0" y="0" width="60" height="60" style="fill:none;"/>
            <g transform="matrix(2.27212,1.31181,-1.31181,2.27212,-44.7338,-421.284)">
                <path d="M119.568,135.212C119.205,139.313 115.756,142.533 111.561,142.533C107.124,142.533 103.522,138.931 103.522,134.495C103.522,130.058 107.124,126.456 111.561,126.456C111.766,126.456 111.97,126.464 112.171,126.479C110.115,127.415 108.683,129.489 108.683,131.895C108.683,135.178 111.348,137.843 114.631,137.843C116.686,137.843 118.499,136.798 119.568,135.212ZM118.561,137.096C117.468,137.924 116.106,138.415 114.631,138.415C111.033,138.415 108.111,135.493 108.111,131.895C108.111,130.031 108.895,128.349 110.15,127.161C106.702,127.821 104.094,130.855 104.094,134.495C104.094,138.616 107.439,141.962 111.561,141.962C114.767,141.962 117.505,139.936 118.561,137.096Z"/>
            </g>
        </g>
    </g>
</svg>
