<?xml version="1.0" encoding="UTF-8" standalone="no"?>
<!DOCTYPE svg PUBLIC "-//W3C//DTD SVG 1.1//EN" "http://www.w3.org/Graphics/SVG/1.1/DTD/svg11.dtd">
<svg width="100%" height="100%" viewBox="0 0 60 60" version="1.1" xmlns="http://www.w3.org/2000/svg" xmlns:xlink="http://www.w3.org/1999/xlink" xml:space="preserve" xmlns:serif="http://www.serif.com/" style="fill-rule:evenodd;clip-rule:evenodd;stroke-linejoin:round;stroke-miterlimit:2;">
    <g transform="matrix(1,0,0,1,-62,-124)">
        <g id="showers-night" transform="matrix(1,0,0,1,62,124)">
            <rect x="0" y="0" width="60" height="60" style="fill:none;"/>
            <g transform="matrix(0.587597,0,0,0.587597,1.00798,14.9978)">
                <path d="M2.96,30.364L28.538,30.364L28.538,32.916L0.523,32.916L0.249,31.4C0.273,30.979 0.39,29.868 0.762,28.448C1.853,24.295 5.111,17.529 14.385,17.495C14.993,17.427 15.487,17.39 15.893,17.324C16.097,17.291 16.266,17.274 16.394,17.18C16.54,17.073 16.59,16.874 16.676,16.591C16.79,16.213 16.884,15.734 16.98,15.118L16.981,15.112C18.391,6.58 25.842,0.259 34.49,0.259C40.538,0.259 46.184,3.351 49.442,8.447C49.739,8.901 49.939,9.236 50.253,9.304C50.559,9.37 50.861,9.15 51.294,8.867C53.645,7.282 56.375,6.347 59.205,6.156C66.113,5.694 72.602,9.661 75.34,16.02C75.554,16.505 75.685,16.857 75.968,16.99C76.239,17.117 76.568,16.985 77.046,16.833C79.708,15.996 82.536,15.821 85.29,16.326L85.299,16.328C92.634,17.79 98.073,24.11 98.425,31.58L98.488,32.916L73.171,32.916L73.171,30.364L95.746,30.364C94.914,24.659 90.551,19.982 84.811,18.834C82.478,18.408 80.075,18.557 77.817,19.266C76.53,19.676 75.613,19.644 74.882,19.3C74.165,18.963 73.548,18.28 73,17.04L72.997,17.034C70.687,11.664 65.209,8.313 59.376,8.704C56.993,8.864 54.694,9.653 52.706,10.993L52.699,10.998C51.512,11.775 50.547,11.98 49.712,11.799C48.886,11.619 48.085,11.035 47.298,9.833L47.294,9.827C44.506,5.461 39.67,2.812 34.49,2.812C27.087,2.812 20.708,8.222 19.5,15.525C19.152,17.756 18.615,18.72 17.899,19.242C17.224,19.735 16.246,19.853 14.614,20.038L14.542,20.046L14.47,20.046C6.788,20.046 4.13,25.672 3.231,29.096C3.113,29.545 3.025,29.983 2.96,30.364Z"/>
            </g>
            <g transform="matrix(1.11152,0,0,1,-144.407,-62.0058)">
                <rect x="154.432" y="94.824" width="11.131" height="1.5"/>
            </g>
            <g transform="matrix(0.304233,0,0,1,-26.2803,-62.0058)">
                <rect x="154.432" y="94.824" width="11.131" height="1.5"/>
            </g>
            <g transform="matrix(0.670083,0,0,0.670083,-1.79171,9.94912)">
                <path d="M29.789,40.29C29.789,43.188 29.829,45.665 29.779,48.141C29.754,50.723 27.962,52.974 25.452,53.578L25.419,53.586L25.386,53.592C25.064,53.649 24.737,53.678 24.409,53.678C21.354,53.678 18.84,51.164 18.84,48.109C18.84,46.313 19.709,44.625 21.183,43.569L21.198,43.559C23.351,42.121 25.604,40.842 28.089,39.333L29.789,38.301L29.789,40.29ZM27.556,42.265C25.761,43.336 24.081,44.326 22.451,45.415C21.59,46.041 21.079,47.043 21.079,48.109C21.079,49.936 22.582,51.44 24.409,51.44C24.594,51.44 24.779,51.424 24.973,51.391C26.465,51.01 27.526,49.662 27.541,48.113L27.541,48.107C27.579,46.218 27.565,44.334 27.556,42.265Z"/>
            </g>
            <g transform="matrix(0.670083,0,0,0.670083,-1.79171,9.94912)">
                <path d="M51.409,40.29C51.409,43.188 51.449,45.665 51.399,48.143C51.37,50.722 49.58,52.97 47.074,53.578L47.04,53.586L47.006,53.592C46.684,53.649 46.357,53.678 46.029,53.678C42.974,53.678 40.46,51.164 40.46,48.109C40.46,46.313 41.329,44.625 42.802,43.57L42.816,43.561C44.96,42.121 47.214,40.842 49.711,39.332L51.409,38.305L51.409,40.29ZM49.176,42.262C47.375,43.334 45.695,44.325 44.072,45.414C43.21,46.04 42.699,47.043 42.699,48.109C42.699,49.936 44.202,51.44 46.029,51.44C46.214,51.44 46.398,51.424 46.591,51.391C48.083,51.008 49.143,49.661 49.161,48.112L49.161,48.107C49.199,46.217 49.185,44.332 49.176,42.262Z"/>
            </g>
            <g transform="matrix(0.670083,0,0,0.670083,-1.79171,9.94912)">
                <path d="M73.029,40.29C73.029,43.191 73.118,45.672 73.009,48.142C72.991,50.727 71.194,52.983 68.678,53.579L68.646,53.587L68.613,53.593C68.296,53.648 67.975,53.676 67.653,53.676C64.598,53.676 62.083,51.162 62.083,48.107C62.083,46.313 62.95,44.625 64.422,43.57L64.436,43.561C66.58,42.121 68.834,40.842 71.331,39.332L73.029,38.305L73.029,40.29ZM70.802,42.258C68.999,43.331 67.317,44.323 65.692,45.414C64.832,46.04 64.322,47.042 64.322,48.107C64.322,49.934 65.826,51.437 67.653,51.437C67.834,51.437 68.015,51.423 68.206,51.39C69.699,51.015 70.761,49.666 70.771,48.102L70.772,48.08C70.855,46.197 70.822,44.32 70.802,42.258Z"/>
            </g>
            <g transform="matrix(0.670083,0,0,0.670083,-1.42053,10.0455)">
                <path d="M37.789,56.67C37.789,59.563 37.829,62.006 37.779,64.518L37.779,64.55C37.779,67.583 35.283,70.079 32.25,70.079C29.217,70.079 26.721,67.583 26.721,64.55C26.721,62.695 27.655,60.958 29.201,59.937C31.352,58.51 33.603,57.233 36.086,55.715L37.789,54.674L37.789,56.67ZM35.556,58.651C33.753,59.73 32.066,60.723 30.437,61.804C29.516,62.412 28.959,63.446 28.959,64.55C28.959,66.355 30.445,67.841 32.25,67.841C34.055,67.841 35.541,66.355 35.541,64.55L35.541,64.504L35.541,64.488C35.579,62.578 35.565,60.709 35.556,58.651Z"/>
            </g>
            <g transform="matrix(0.670083,0,0,0.670083,-1.42053,10.0455)">
                <path d="M59.409,56.67C59.409,59.568 59.449,62.014 59.399,64.531C59.373,67.11 57.58,69.359 55.07,69.959L55.038,69.966L55.006,69.972C54.684,70.029 54.357,70.058 54.029,70.058C50.974,70.058 48.46,67.544 48.46,64.489C48.46,62.693 49.329,61.005 50.804,59.949L50.819,59.939C52.961,58.511 55.214,57.233 57.708,55.714L59.409,54.678L59.409,56.67ZM57.176,58.647C55.375,59.723 53.694,60.713 52.071,61.795C51.21,62.421 50.699,63.424 50.699,64.489C50.699,66.316 52.202,67.82 54.029,67.82C54.215,67.82 54.399,67.804 54.594,67.771C56.087,67.393 57.148,66.044 57.161,64.494L57.161,64.488C57.199,62.577 57.185,60.707 57.176,58.647Z"/>
            </g>
            <g transform="matrix(1.11218,0,0,1.11218,-74.1927,-138.767)">
                <path d="M119.568,135.212C119.205,139.313 115.756,142.533 111.561,142.533C107.124,142.533 103.522,138.931 103.522,134.495C103.522,130.058 107.124,126.456 111.561,126.456C111.766,126.456 111.97,126.464 112.171,126.479C110.115,127.415 108.683,129.489 108.683,131.895C108.683,135.178 111.348,137.843 114.631,137.843C116.686,137.843 118.499,136.798 119.568,135.212ZM116.566,138.932C115.95,139.101 115.301,139.192 114.631,139.192C110.604,139.192 107.334,135.922 107.334,131.895C107.334,130.798 107.577,129.758 108.011,128.824C106.125,130.008 104.871,132.106 104.871,134.495C104.871,138.187 107.868,141.185 111.561,141.185C113.551,141.185 115.34,140.314 116.566,138.932Z"/>
            </g>
        </g>
    </g>
</svg>
