<?xml version="1.0" encoding="UTF-8" standalone="no"?>
<!DOCTYPE svg PUBLIC "-//W3C//DTD SVG 1.1//EN" "http://www.w3.org/Graphics/SVG/1.1/DTD/svg11.dtd">
<svg width="100%" height="100%" viewBox="0 0 60 60" version="1.1" xmlns="http://www.w3.org/2000/svg" xmlns:xlink="http://www.w3.org/1999/xlink" xml:space="preserve" xmlns:serif="http://www.serif.com/" style="fill-rule:evenodd;clip-rule:evenodd;stroke-linejoin:round;stroke-miterlimit:2;">
    <g transform="matrix(1,0,0,1,0,-62)">
        <g id="clear-day" transform="matrix(1,0,0,1,0,62)">
            <rect x="0" y="0" width="60" height="60" style="fill:none;"/>
            <g transform="matrix(1,0,0,1,1.265,1.265)">
                <rect x="1.5" y="27.98" width="7.05" height="1.5"/>
            </g>
            <g transform="matrix(1,0,0,1,1.265,1.265)">
                <path d="M13.629,42.31L14.671,43.39L9.591,48.29L8.549,47.21L13.629,42.31Z"/>
            </g>
            <g transform="matrix(1,0,0,1,1.265,1.265)">
                <path d="M15.286,13.756L14.214,14.804L9.284,9.764L10.356,8.716L15.286,13.756Z"/>
            </g>
            <g transform="matrix(1,0,0,1,1.265,1.265)">
                <path d="M9.745,35.766L10.315,37.154L3.795,39.834L3.225,38.446L9.745,35.766Z"/>
            </g>
            <g transform="matrix(1,0,0,1,1.265,1.265)">
                <path d="M21.802,9.83L20.418,10.41L17.698,3.91L19.082,3.33L21.802,9.83Z"/>
            </g>
            <g transform="matrix(1,0,0,1,1.265,1.265)">
                <path d="M19.882,47.08L21.258,47.68L18.438,54.15L17.062,53.55L19.882,47.08Z"/>
            </g>
            <g transform="matrix(1,0,0,1,1.265,1.265)">
                <path d="M10.547,20.051L9.953,21.429L3.483,18.639L4.077,17.261L10.547,20.051Z"/>
            </g>
            <g transform="matrix(1,0,0,1,1.265,1.265)">
                <path d="M28.726,13.249C28.846,13.247 28.966,13.245 29.085,13.245C37.649,13.245 44.695,20.292 44.695,28.855C44.695,37.418 37.649,44.465 29.085,44.465C28.963,44.465 28.84,44.463 28.725,44.461C28.605,44.464 28.485,44.465 28.365,44.465C19.801,44.465 12.755,37.418 12.755,28.855C12.755,20.292 19.801,13.245 28.365,13.245C28.485,13.245 28.606,13.247 28.726,13.249ZM28.705,42.96C28.705,42.96 28.729,42.96 28.73,42.96L28.749,42.96C28.861,42.963 28.973,42.965 29.085,42.965C36.826,42.965 43.195,36.596 43.195,28.855C43.195,21.114 36.826,14.745 29.085,14.745C28.974,14.745 28.862,14.747 28.75,14.749L28.75,14.75L28.74,14.75L28.719,14.75L28.7,14.75L28.7,14.749C28.588,14.746 28.476,14.745 28.365,14.745C20.624,14.745 14.255,21.114 14.255,28.855C14.255,36.596 20.624,42.965 28.365,42.965C28.478,42.965 28.592,42.963 28.705,42.96Z"/>
            </g>
            <g transform="matrix(1,0,0,1,1.265,1.265)">
                <rect x="48.92" y="27.98" width="7.05" height="1.5"/>
            </g>
            <g transform="matrix(1,0,0,1,1.265,1.265)">
                <rect x="27.98" y="1.5" width="1.5" height="7.05"/>
            </g>
            <g transform="matrix(1,0,0,1,1.265,1.265)">
                <rect x="27.98" y="48.92" width="1.5" height="7.05"/>
            </g>
            <g transform="matrix(1,0,0,1,1.265,1.265)">
                <path d="M42.799,43.389L43.841,42.311L48.911,47.211L47.869,48.289L42.799,43.389Z"/>
            </g>
            <g transform="matrix(1,0,0,1,1.265,1.265)">
                <path d="M43.256,14.804L42.184,13.756L47.114,8.716L48.186,9.764L43.256,14.804Z"/>
            </g>
            <g transform="matrix(1,0,0,1,1.265,1.265)">
                <path d="M47.155,37.154L47.725,35.766L54.245,38.446L53.675,39.834L47.155,37.154Z"/>
            </g>
            <g transform="matrix(1,0,0,1,1.265,1.265)">
                <path d="M37.052,10.41L35.668,9.83L38.388,3.33L39.772,3.91L37.052,10.41Z"/>
            </g>
            <g transform="matrix(1,0,0,1,1.265,1.265)">
                <path d="M36.203,47.681L37.577,47.079L40.407,53.549L39.033,54.151L36.203,47.681Z"/>
            </g>
            <g transform="matrix(1,0,0,1,1.265,1.265)">
                <path d="M47.507,21.429L46.913,20.051L53.393,17.261L53.987,18.639L47.507,21.429Z"/>
            </g>
        </g>
    </g>
</svg>
