<?xml version="1.0" encoding="UTF-8" standalone="no"?>
<!DOCTYPE svg PUBLIC "-//W3C//DTD SVG 1.1//EN" "http://www.w3.org/Graphics/SVG/1.1/DTD/svg11.dtd">
<svg width="100%" height="100%" viewBox="0 0 60 60" version="1.1" xmlns="http://www.w3.org/2000/svg" xmlns:xlink="http://www.w3.org/1999/xlink" xml:space="preserve" xmlns:serif="http://www.serif.com/" style="fill-rule:evenodd;clip-rule:evenodd;stroke-linejoin:round;stroke-miterlimit:2;">
    <g transform="matrix(1,0,0,1,-124,-124)">
        <g id="sleet" transform="matrix(1,0,0,1,124,124)">
            <rect x="0" y="0" width="60" height="60" style="fill:none;"/>
            <g transform="matrix(0.587597,0,0,0.587597,1.00798,14.9978)">
                <path d="M2.96,30.364L16.565,30.364L16.565,32.916L0.523,32.916L0.249,31.4C0.273,30.979 0.39,29.868 0.762,28.448C1.853,24.295 5.111,17.529 14.385,17.495C14.993,17.427 15.487,17.39 15.893,17.324C16.097,17.291 16.266,17.274 16.394,17.18C16.54,17.073 16.59,16.874 16.676,16.591C16.79,16.213 16.884,15.734 16.98,15.118L16.981,15.112C18.391,6.58 25.842,0.259 34.49,0.259C40.538,0.259 46.184,3.351 49.442,8.447C49.739,8.901 49.939,9.236 50.253,9.304C50.559,9.37 50.861,9.15 51.294,8.867C53.645,7.282 56.375,6.347 59.205,6.156C66.113,5.694 72.602,9.661 75.34,16.02C75.554,16.505 75.685,16.857 75.968,16.99C76.239,17.117 76.568,16.985 77.046,16.833C79.708,15.996 82.536,15.821 85.29,16.326L85.299,16.328C92.634,17.79 98.073,24.11 98.425,31.58L98.488,32.916L84.112,32.916L84.112,30.364L95.746,30.364C94.914,24.659 90.551,19.982 84.811,18.834C82.478,18.408 80.075,18.557 77.817,19.266C76.53,19.676 75.613,19.644 74.882,19.3C74.165,18.963 73.548,18.28 73,17.04L72.997,17.034C70.687,11.664 65.209,8.313 59.376,8.704C56.993,8.864 54.694,9.653 52.706,10.993L52.699,10.998C51.512,11.775 50.547,11.98 49.712,11.799C48.886,11.619 48.085,11.035 47.298,9.833L47.294,9.827C44.506,5.461 39.67,2.812 34.49,2.812C27.087,2.812 20.708,8.222 19.5,15.525C19.152,17.756 18.615,18.72 17.899,19.242C17.224,19.735 16.246,19.853 14.614,20.038L14.542,20.046L14.47,20.046C6.788,20.046 4.13,25.672 3.231,29.096C3.113,29.545 3.025,29.983 2.96,30.364Z"/>
            </g>
            <g transform="matrix(0.304233,0,0,1,-34.1847,-62.0058)">
                <rect x="154.432" y="94.824" width="11.131" height="1.5"/>
            </g>
            <g transform="matrix(0.304233,0,0,1,-1.74851,-62.0058)">
                <rect x="154.432" y="94.824" width="11.131" height="1.5"/>
            </g>
            <g transform="matrix(0.506862,0,0,0.506862,5.22873,16.8135)">
                <path d="M59.54,19.317L61.64,21.403L50.33,32.783L48.23,30.697L59.54,19.317Z"/>
            </g>
            <g transform="matrix(-0.506862,0,0,0.506862,54.7713,16.8135)">
                <path d="M61.64,21.403L59.54,19.317L48.23,30.697L50.33,32.783L61.64,21.403Z"/>
            </g>
            <g transform="matrix(0.506862,0,0,-0.506862,5.22873,58.2543)">
                <path d="M61.64,21.403L59.54,19.317L48.23,30.697L50.33,32.783L61.64,21.403Z"/>
            </g>
            <g transform="matrix(-0.506862,0,0,-0.506862,54.7713,58.2543)">
                <path d="M59.54,19.317L61.64,21.403L50.33,32.783L48.23,30.697L59.54,19.317Z"/>
            </g>
            <g transform="matrix(3.10363e-17,-0.506862,0.506862,3.10363e-17,9.27956,62.3052)">
                <path d="M59.54,19.317L61.64,21.403L50.33,32.783L48.23,30.697L59.54,19.317Z"/>
            </g>
            <g transform="matrix(-3.10363e-17,0.506862,0.506862,3.10363e-17,9.27956,12.7626)">
                <path d="M61.64,21.403L59.54,19.317L48.23,30.697L50.33,32.783L61.64,21.403Z"/>
            </g>
            <g transform="matrix(3.10363e-17,-0.506862,-0.506862,-3.10363e-17,50.7204,62.3052)">
                <path d="M61.64,21.403L59.54,19.317L48.23,30.697L50.33,32.783L61.64,21.403Z"/>
            </g>
            <g transform="matrix(-3.10363e-17,0.506862,-0.506862,-3.10363e-17,50.7204,12.7626)">
                <path d="M59.54,19.317L61.64,21.403L50.33,32.783L48.23,30.697L59.54,19.317Z"/>
            </g>
            <g transform="matrix(0.74959,0,0,0.74959,-6.90231,13.9181)">
                <rect x="48.229" y="15.76" width="2.001" height="31.49"/>
            </g>
            <g transform="matrix(4.58991e-17,-0.74959,0.74959,4.58991e-17,6.38417,74.4362)">
                <rect x="48.229" y="15.76" width="2.001" height="31.49"/>
            </g>
        </g>
    </g>
</svg>
